<?xml version="1.0" standalone="no"?>
<!DOCTYPE svg PUBLIC "-//W3C//DTD SVG 20010904//EN"
 "http://www.w3.org/TR/2001/REC-SVG-20010904/DTD/svg10.dtd">
<svg version="1.0" xmlns="http://www.w3.org/2000/svg"
 width="128.000000pt" height="128.000000pt" viewBox="0 0 128.000000 128.000000"
 preserveAspectRatio="xMidYMid meet">
<metadata>
Created by potrace 1.11, written by Peter Selinger 2001-2013
</metadata>
<g transform="translate(0.000000,128.000000) scale(0.100000,-0.100000)"
fill="#000000" stroke="none">
<path d="M585 1208 c-79 -27 -134 -102 -135 -184 0 -56 22 -105 65 -142 l35
-31 0 -311 c0 -170 -2 -310 -5 -310 -19 0 -106 54 -138 85 -32 31 -77 101 -77
120 0 3 14 11 30 16 18 7 30 18 30 28 0 22 -164 134 -188 129 -19 -4 -100
-162 -101 -196 -1 -22 2 -23 36 -18 l38 7 27 -59 c91 -196 321 -311 534 -267
140 30 281 138 339 263 29 61 31 63 63 57 25 -5 34 -2 39 11 8 23 -82 204
-102 204 -8 0 -53 -25 -100 -57 -92 -61 -105 -84 -55 -102 36 -12 37 -20 6
-69 -41 -65 -116 -128 -173 -146 l-23 -7 0 311 0 311 30 26 c67 56 87 149 51
229 -37 82 -143 130 -226 102z m93 -135 c53 -46 12 -123 -57 -108 -51 11 -60
87 -14 114 26 15 48 13 71 -6z"/>
</g>
</svg>
